C:\GBW_MyPrograms\KinderuniversiteitApp\Resultaten\Ellis\SpongeBob_v2.mot
version=1
nRows=10
nColumns=31
inDegrees=yes
endheader
                time	         pelvis_tilt	           pelvis_tx	           pelvis_ty	       hip_flexion_r	        knee_angle_r	       ankle_angle_r	       hip_flexion_l	        knee_angle_l	       ankle_angle_l	    lumbar_extension	          arm_flex_r	          arm_flex_l	hamstrings_r/activation	bifemsh_r/activation	glut_max_r/activation	iliopsoas_r/activation	rect_fem_r/activation	  vasti_r/activation	gastroc_r/activation	 soleus_r/activation	tib_ant_r/activation	hamstrings_l/activation	bifemsh_l/activation	glut_max_l/activation	iliopsoas_l/activation	rect_fem_l/activation	  vasti_l/activation	gastroc_l/activation	 soleus_l/activation	tib_ant_l/activation	
          0.83806196	         -6.19077935	          1.11462240	          0.90264907	         43.54225429	        -19.48484846	        -16.45346258	        -26.43185710	         -8.41247523	        -43.48707181	          2.28681797	        -31.52274608	        -31.52441861	          0.83055737	          0.10951135	          0.76459419	          0.13900871	          0.61162853	          0.93734896	          0.08709304	          0.56225812	          0.77775201	          0.08547757	          0.49760293	          0.23051991	          0.75920929	          0.99282480	          0.83879758	          0.75008868	          0.81294058	          0.26094524	
          0.85482320	         -6.54951023	          1.14395206	          0.90554222	         45.19946241	        -24.91635413	        -14.55262190	        -25.99934766	         -8.06972693	        -47.53610919	          3.21165202	        -30.87026382	        -30.87367069	          0.91964203	          0.08562879	          0.88880857	          0.10866807	          0.81623982	          0.97040521	          0.06813271	          0.46037184	          0.60812314	          0.06696111	          0.51904608	          0.18065427	          0.88596981	          0.98313482	          0.65652089	          0.66574923	          0.66903874	          0.47425610	
          0.87158443	         -6.71728005	          1.17061821	          0.91023471	         45.71917202	        -28.42604311	        -12.90931822	        -25.15237241	         -8.82658686	        -47.48293996	          3.70609900	        -29.34918677	        -29.35377479	          0.96180582	          0.06697525	          0.94747004	          0.08495461	          0.89204695	          0.98601542	          0.05335892	          0.35995828	          0.47618808	          0.08061637	          0.40657172	          0.17897576	          0.82178713	          0.98957829	          0.83645180	          0.68602091	          0.71188972	          0.37140052	
          0.88834567	         -6.66343531	          1.19512115	          0.91652682	         45.18832840	        -30.38154652	        -11.22330645	        -24.43966443	         -9.08991922	        -48.30728159	          3.79097638	        -27.06739214	        -27.07179236	          0.90318891	          0.05244130	          0.97516769	          0.06642690	          0.94839497	          0.99338560	          0.05027182	          0.28141777	          0.75140945	          0.06341411	          0.31875263	          0.14071001	          0.91557230	          0.99387881	          0.91663316	          0.60252926	          0.56823913	          0.34549038	
          0.90510691	         -6.61858560	          1.21777418	          0.92373495	         44.08711765	        -31.22517174	         -9.36515019	        -23.72381010	         -8.66956403	        -50.99050219	          3.77586841	        -24.17346643	        -24.17722194	          0.93238986	          0.05027510	          0.98824247	          0.05196781	          0.97491374	          0.99686322	          0.05031618	          0.22001122	          0.88207166	          0.05152877	          0.25000934	          0.11068540	          0.95984231	          0.99531005	          0.94844463	          0.57893396	          0.44870789	          0.48858255	
          0.92186815	         -6.66559483	          1.23879510	          0.93137431	         42.65758727	        -31.20975562	         -7.47199846	        -22.73382301	         -8.53430196	        -52.87870843	          3.77989239	        -20.77304312	        -20.77669008	          0.82989748	          0.05038507	          0.99440879	          0.05014706	          0.98734378	          0.99850027	          0.05028797	          0.17200608	          0.94392533	          0.05116227	          0.19608210	          0.08732905	          0.98068818	          0.99583219	          0.78149306	          0.57121393	          0.35213515	          0.52331793	
          0.93862939	         -6.78306973	          1.25840161	          0.93922680	         41.00707360	        -30.53956438	         -5.69173971	        -21.43514047	         -9.04701095	        -53.20976825	          3.79587006	        -16.94571382	        -16.94867697	          0.87690614	          0.05042216	          0.99730573	          0.05021814	          0.99290938	          0.99926176	          0.05027539	          0.13448024	          0.97319524	          0.05098217	          0.15403753	          0.06961050	          0.99033335	          0.99616259	          0.62726649	          0.57718611	          0.27647902	          0.44502097	
          0.95539063	         -6.80477473	          1.27687608	          0.94738306	         39.03939899	        -29.36482886	         -4.06858086	        -20.12517493	         -9.75581826	        -53.22488392	          3.64883673	        -12.74251186	        -12.74539382	          0.94096876	          0.05049362	          0.99864118	          0.05023650	          0.99445870	          0.99958540	          0.05027309	          0.10514824	          0.98703911	          0.05105056	          0.12149084	          0.05773088	          0.99366445	          0.99603984	          0.49151075	          0.58177278	          0.21708732	          0.42613152	
          0.97215187	         -6.54776762	          1.29442865	          0.95600725	         36.61593431	        -27.78565479	         -2.64899003	        -19.04040365	        -10.46284920	        -53.30188446	          3.13328262	         -8.20023587	         -8.20264898	          0.97113840	          0.05057589	          0.99918366	          0.05021962	          0.99398564	          0.99963819	          0.05025881	          0.08222426	          0.99356316	          0.05185660	          0.09673129	          0.06237813	          0.98911542	          0.99531923	          0.38468341	          0.57714531	          0.17043626	          0.38002782	
          0.98891311	         -6.05016471	          1.31116301	          0.96494599	         33.79677060	        -25.82941076	         -1.48413678	        -18.05061625	        -11.41070572	        -52.89852459	          2.29414230	         -3.39259990	         -3.39473545	          0.97071684	          0.05067064	          0.99918859	          0.05025688	          0.99560837	          0.99954848	          0.05025228	          0.06431923	          0.99655900	          0.05174851	          0.52556234	          0.05902130	          0.99376642	          0.99454655	          0.30091554	          0.54492634	          0.13379428	          0.65511735	
